<?xml version="1.0" encoding="utf-8"?>
<!-- Generator: Adobe Illustrator 15.0.0, SVG Export Plug-In . SVG Version: 6.00 Build 0)  -->
<!DOCTYPE svg PUBLIC "-//W3C//DTD SVG 1.1//EN" "http://www.w3.org/Graphics/SVG/1.1/DTD/svg11.dtd">
<svg version="1.1" id="Layer_1" xmlns="http://www.w3.org/2000/svg" xmlns:xlink="http://www.w3.org/1999/xlink" x="0px" y="0px"
	 width="500px" height="500px" viewBox="0 0 500 500" enable-background="new 0 0 500 500" xml:space="preserve">
<g id="Layer_4">
	<g>
		<path fill="#003A70" d="M500,250c0,138.072-111.93,250-250,250C111.928,500,0,388.072,0,250C0,111.928,111.928,0,250,0
			C388.071,0,500,111.928,500,250"/>
		<path fill="none" stroke="#FFFFFF" stroke-width="2" stroke-miterlimit="10" d="M325.529,281.787
			c-7.08-6.543-13.979-12.926-21.06-19.477c0.423-0.453,0.823-0.893,1.231-1.332c9.005-9.709,18.035-19.413,27.013-29.157
			c2.671-2.902,5.576-5.686,7.693-8.964c3.764-5.846,4.276-12.256,1.493-18.743c-1.188-2.769-3.229-4.736-6.072-5.929
			c-7.715-3.229-15.801-4.353-24.064-4.179c-4.398,0.091-8.813,0.537-13.171,1.138c-6.222,0.857-10.78-1.646-14.387-6.438
			c-0.362-0.481-0.613-1.074-0.851-1.653c-0.549-1.36-0.343-2.497,1.172-3.021c4.484-1.598,8.914-3.418,13.5-4.652
			c21.408-5.79,42.457-4.332,63.136,3.501c5.587,2.121,10.456,5.49,15.388,8.755c5.678,3.76,11.328,7.554,16.249,12.29
			c1.636,1.584,3.121,3.342,4.541,5.12c2.11,2.63,2.943,5.734,3.244,9.082c0.805,8.796,5.793,15.005,12.736,19.88
			c1.971,1.389,4.321,1.919,6.672,1.8c6.148-0.3,10.764,2.428,14.628,6.899c1.765,2.036,3.585,4.031,5.486,5.942
			c1.8,1.812,1.99,3.906,0.97,6.006c-1.301,2.691-2.692,5.398-4.431,7.826c-3.143,4.373-6.334,8.762-10.77,11.99
			c-0.879,0.643-1.793,1.256-2.742,1.766c-5.029,2.686-8.564,2.379-12.824-1.381c-2.054-1.813-3.92-3.864-5.698-5.957
			c-1.691-2.002-2.937-4.297-2.999-7.024c-0.225-9.276-5.664-14.704-13.687-17.787c-10.149-3.906-20.243-2.881-29.864,1.911
			c-2.586,1.29-4.82,3.438-6.893,5.523c-8.279,8.314-16.421,16.756-24.613,25.153C326.238,281.006,325.928,281.354,325.529,281.787z
			"/>
		<path fill="none" stroke="#FFFFFF" stroke-width="2" stroke-miterlimit="10" d="M290.178,328.962
			c-5.678,6.139-22.757,24.651-28.463,30.762c-5.65,6.049-10.094,12.759-12.096,20.928c-0.362,1.499-0.955,2.964-1.59,4.38
			c-1.838,4.123-5.322,6.041-9.814,5.447c-3.735-0.502-7.15-2.002-10.115-4.191c-6.25-4.632-12.437-9.368-18.436-14.313
			c-2.772-2.295-4.701-5.398-5.179-9.15c-0.395-3.015,0.223-5.839,2.479-7.876c3.655-3.292,7.436-6.466,11.355-9.432
			c5.515-4.171,10.129-9.222,14.694-14.334c2.599-2.901,16.604-18.172,19.228-21.045c5.321-5.839,10.672-11.643,16.009-17.474
			c4.141-4.521,8.255-9.062,12.413-13.562c2.957-3.193,6.63-5.146,10.892-5.895c0.635-0.118,1.566,0.146,2.045,0.586
			c7.106,6.543,14.178,13.135,21.204,19.762c0.462,0.439,0.736,1.367,0.666,2.016c-0.436,4.199-2.085,7.938-4.928,11.043
			c-6.801,7.437-13.672,14.81-20.515,22.21C290.077,328.871,290.129,328.913,290.178,328.962z"/>
		<path fill="none" stroke="#FFFFFF" stroke-width="2" stroke-miterlimit="10" d="M206.536,326.451
			c-52.85,0-95.693-42.844-95.693-95.696c0-52.846,42.844-95.689,95.693-95.689c26.419,0,50.349,10.715,67.661,28.027"/>
		<polyline fill="none" stroke="#FFFFFF" stroke-width="2" stroke-miterlimit="10" points="194.318,161.007 194.318,233.907 
			157.69,271.943 		"/>
	</g>
	<g>
		<path fill="#003A70" d="M500,250c0,138.072-111.928,250-250,250C111.935,500,0,388.072,0,250C0,111.928,111.935,0,250,0
			C388.072,0,500,111.928,500,250"/>
		<path fill="#FFFFFF" d="M245.25,323.988c-48.319-0.3-98.473-16.782-140.061-55.698c-7.149-6.688-13.204-14.572-19.615-22.029
			c-2.497-2.901-2.33-4.24,0.014-7.358c19.88-26.438,45.361-45.767,75.502-59.04c35.4-15.576,72.475-21.102,110.902-17.376
			c42.6,4.115,80.923,18.959,114.126,46.296c10.825,8.907,20.424,19.029,28.787,30.301c2.177,2.938,2.184,4.192-0.069,7.178
			c-22.161,29.409-50.977,49.868-85.121,63.079C305.1,318.868,279.521,323.493,245.25,323.988 M323.725,243.819
			c0.78-40.388-31.459-73.737-72.225-74.728c-39.858-0.97-74.052,31.578-74.868,71.261c-0.837,41.016,31.18,75.008,71.401,75.823
			C289.271,317.013,322.929,284.843,323.725,243.819 M206.048,311.37c-23.737-16.943-37.047-39.544-36.998-68.854
			c0.049-29.276,13.393-51.855,37.116-68.659c-45.772,9.828-84.347,31.459-113.672,68.784
			C121.882,280.009,160.428,301.583,206.048,311.37 M407.799,242.738c-14.117-18.484-31.076-33.279-50.81-44.887
			c-18.89-11.091-54.736-24.512-62.793-23.695c50.069,32.533,49.135,106.215,0.084,137.275
			C339.893,301.604,378.404,280.021,407.799,242.738"/>
		<path fill="#FFFFFF" d="M281.083,242.578c0.015,17.083-13.742,30.922-30.776,30.964c-17.124,0.042-31.033-13.722-31.04-30.706
			c-0.008-17.41,13.755-31.131,31.187-31.104C267.292,211.754,281.075,225.635,281.083,242.578 M226.988,242.599
			c0.014,12.891,10.379,23.284,23.151,23.229c13.044-0.069,23.22-10.33,23.229-23.431c0.007-12.646-10.317-22.886-23.152-22.949
			C237.389,219.385,226.974,229.757,226.988,242.599"/>
	</g>
</g>
</svg>
