<?xml version="1.0" encoding="utf-8"?>
<!-- Generator: Adobe Illustrator 15.0.0, SVG Export Plug-In . SVG Version: 6.00 Build 0)  -->
<!DOCTYPE svg PUBLIC "-//W3C//DTD SVG 1.1//EN" "http://www.w3.org/Graphics/SVG/1.1/DTD/svg11.dtd">
<svg version="1.1" id="Layer_1" xmlns="http://www.w3.org/2000/svg" xmlns:xlink="http://www.w3.org/1999/xlink" x="0px" y="0px"
	 width="500px" height="500px" viewBox="0 0 500 500" enable-background="new 0 0 500 500" xml:space="preserve">
<g id="Layer_4">
	<g>
		<path fill="#003A70" d="M500,250c0,138.072-111.93,250-250,250C111.928,500,0,388.072,0,250C0,111.928,111.928,0,250,0
			C388.071,0,500,111.928,500,250"/>
		<path fill="none" stroke="#FFFFFF" stroke-width="8" stroke-miterlimit="10" d="M325.529,281.787
			c-7.08-6.543-13.979-12.926-21.061-19.477c0.424-0.453,0.823-0.894,1.231-1.332c9.005-9.709,18.034-19.414,27.013-29.158
			c2.671-2.902,5.576-5.686,7.693-8.964c3.764-5.846,4.275-12.256,1.492-18.743c-1.188-2.769-3.229-4.736-6.071-5.929
			c-7.716-3.229-15.802-4.353-24.063-4.179c-4.398,0.091-8.813,0.537-13.172,1.138c-6.222,0.857-10.779-1.646-14.387-6.438
			c-0.362-0.481-0.613-1.074-0.852-1.653c-0.549-1.36-0.343-2.497,1.172-3.021c4.484-1.598,8.914-3.418,13.5-4.652
			c21.408-5.79,42.457-4.332,63.137,3.501c5.587,2.121,10.456,5.49,15.388,8.755c5.679,3.76,11.328,7.554,16.249,12.29
			c1.637,1.584,3.121,3.342,4.541,5.12c2.11,2.63,2.943,5.734,3.244,9.082c0.805,8.796,5.793,15.005,12.736,19.88
			c1.971,1.389,4.32,1.919,6.672,1.8c6.147-0.3,10.764,2.428,14.628,6.899c1.765,2.036,3.585,4.031,5.485,5.941
			c1.801,1.812,1.99,3.906,0.971,6.007c-1.301,2.69-2.692,5.397-4.432,7.825c-3.143,4.373-6.334,8.763-10.77,11.99
			c-0.879,0.644-1.793,1.256-2.742,1.766c-5.029,2.687-8.563,2.38-12.824-1.381c-2.054-1.812-3.92-3.863-5.697-5.957
			c-1.691-2.002-2.938-4.297-2.999-7.023c-0.226-9.275-5.665-14.704-13.688-17.787c-10.149-3.906-20.243-2.881-29.864,1.911
			c-2.586,1.29-4.82,3.438-6.893,5.522c-8.279,8.314-16.421,16.756-24.613,25.153C326.238,281.006,325.928,281.354,325.529,281.787z
			"/>
		<path fill="none" stroke="#FFFFFF" stroke-width="8" stroke-miterlimit="10" d="M290.178,328.962
			c-5.678,6.139-22.757,24.651-28.463,30.762c-5.65,6.05-10.094,12.76-12.096,20.929c-0.362,1.499-0.955,2.964-1.59,4.38
			c-1.838,4.123-5.322,6.041-9.814,5.446c-3.735-0.502-7.15-2.002-10.115-4.19c-6.25-4.632-12.437-9.368-18.436-14.313
			c-2.772-2.295-4.701-5.397-5.179-9.149c-0.395-3.016,0.223-5.839,2.479-7.876c3.655-3.292,7.436-6.466,11.355-9.433
			c5.515-4.171,10.129-9.222,14.694-14.334c2.599-2.9,16.604-18.172,19.228-21.045c5.321-5.839,10.672-11.643,16.009-17.474
			c4.141-4.521,8.255-9.062,12.413-13.562c2.957-3.192,6.63-5.146,10.892-5.895c0.635-0.118,1.566,0.146,2.045,0.586
			c7.106,6.543,14.178,13.135,21.205,19.762c0.461,0.439,0.735,1.367,0.665,2.016c-0.436,4.199-2.085,7.938-4.928,11.044
			c-6.801,7.437-13.672,14.81-20.515,22.21C290.077,328.871,290.129,328.913,290.178,328.962z"/>
		<path fill="none" stroke="#FFFFFF" stroke-width="8" stroke-miterlimit="10" d="M206.536,326.451
			c-52.85,0-95.693-42.844-95.693-95.696c0-52.846,42.844-95.689,95.693-95.689c26.419,0,50.349,10.715,67.661,28.027"/>
		<polyline fill="none" stroke="#FFFFFF" stroke-width="8" stroke-miterlimit="10" points="194.318,161.007 194.318,233.907 
			157.69,271.943 		"/>
	</g>
</g>
</svg>
