<?xml version="1.0" encoding="utf-8"?>
<!-- Generator: Adobe Illustrator 15.0.0, SVG Export Plug-In . SVG Version: 6.00 Build 0)  -->
<!DOCTYPE svg PUBLIC "-//W3C//DTD SVG 1.1//EN" "http://www.w3.org/Graphics/SVG/1.1/DTD/svg11.dtd">
<svg version="1.1" id="Layer_1" xmlns="http://www.w3.org/2000/svg" xmlns:xlink="http://www.w3.org/1999/xlink" x="0px" y="0px"
	 width="500px" height="500px" viewBox="0 0 500 500" enable-background="new 0 0 500 500" xml:space="preserve">
<circle id="XMLID_6_" fill="none" stroke="#003A70" stroke-width="16.1333" stroke-miterlimit="10" cx="250" cy="250" r="242"/>
<g id="XMLID_13_">
	
		<line id="XMLID_11_" fill="none" stroke="#A7A9AC" stroke-width="10" stroke-miterlimit="10" x1="264.408" y1="256.209" x2="284.703" y2="275.998"/>
	
		<rect id="XMLID_10_" x="305.544" y="260.211" transform="matrix(-0.7071 0.7071 -0.7071 -0.7071 772.6395 307.9597)" fill="none" stroke="#A7A9AC" stroke-width="10" stroke-miterlimit="10" width="33.994" height="107.567"/>
	<polygon id="XMLID_9_" fill="none" stroke="#A7A9AC" stroke-width="10" stroke-miterlimit="10" points="168.509,184.159 
		192.357,159.804 152.78,135.957 144.661,144.074 	"/>
	
		<line id="XMLID_8_" fill="none" stroke="#A7A9AC" stroke-width="10" stroke-miterlimit="10" x1="232.442" y1="224.244" x2="180.687" y2="171.981"/>
	<path id="XMLID_7_" fill="none" stroke="#A7A9AC" stroke-width="10" stroke-miterlimit="10" d="M352.694,169.952l-31.966,15.222
		l-16.236-16.745l14.207-32.473l0,0c-40.084,0-50.231,19.788-50.231,39.577v16.237L134.514,328.262l-7.104,23.848l8.626,8.119
		l24.355-6.09l135.983-133.954h16.237C332.399,220.185,352.694,210.037,352.694,169.952L352.694,169.952z"/>
</g>
</svg>
