<?xml version="1.0" encoding="utf-8"?>
<!-- Generator: Adobe Illustrator 15.0.0, SVG Export Plug-In . SVG Version: 6.00 Build 0)  -->
<!DOCTYPE svg PUBLIC "-//W3C//DTD SVG 1.1//EN" "http://www.w3.org/Graphics/SVG/1.1/DTD/svg11.dtd">
<svg version="1.1" id="Layer_1" xmlns="http://www.w3.org/2000/svg" xmlns:xlink="http://www.w3.org/1999/xlink" x="0px" y="0px"
	 width="500px" height="500px" viewBox="0 0 500 500" enable-background="new 0 0 500 500" xml:space="preserve">
<g id="Layer_2">
	<g>
		<path fill="#003A70" d="M500,250c0,138.073-111.932,250-250,250C111.93,500,0,388.073,0,250C0,111.934,111.93,0,250,0
			C388.068,0,500,111.934,500,250"/>
		<path fill="none" stroke="#FFFFFF" stroke-width="8" stroke-miterlimit="10" d="M250.295,334.26c-47.944,0-95.896,0-143.836,0
			c-6.503,0-9.268-2.793-9.268-9.354c0-60.361,0-120.715,0.007-181.076c0-4.333,0.035-8.651,0.069-12.978
			c0.034-4.711,3.104-7.867,7.802-8.032c0.43-0.021,0.853-0.007,1.276-0.007c96.04,0,192.076,0,288.113,0
			c4.941,0,7.937,1.98,8.857,5.935c0.188,0.812,0.22,1.678,0.22,2.524c0.034,64.763,0.056,129.518,0.076,194.267
			c0.007,5.729-3.029,8.721-8.838,8.721C346.613,334.267,298.456,334.26,250.295,334.26z M386.584,137.895H114.227v156.759h272.357
			V137.895z"/>
		<path fill="none" stroke="#FFFFFF" stroke-width="8" stroke-miterlimit="10" d="M216.879,336.494h67.049
			c0.176,3.096,0.225,13.163,0.54,16.169c0.739,7.11,3.284,13.204,10.134,16.588c1.334,0.653,2.764,1.101,4.164,1.581
			c2.19,0.743,3.133,2.057,2.857,4.072c-0.303,2.214-1.889,2.289-3.631,2.289c-33.282-0.021-62.022-0.021-95.305,0
			c-1.691,0-3.163-0.15-3.507-2.207c-0.33-1.994,0.64-3.452,2.768-4.127c9.092-2.896,13.576-8.5,14.395-18.107
			C216.597,349.733,216.7,339.651,216.879,336.494z"/>
	</g>
</g>
</svg>
