<?xml version="1.0" encoding="utf-8"?>
<!-- Generator: Adobe Illustrator 15.0.0, SVG Export Plug-In . SVG Version: 6.00 Build 0)  -->
<!DOCTYPE svg PUBLIC "-//W3C//DTD SVG 1.1//EN" "http://www.w3.org/Graphics/SVG/1.1/DTD/svg11.dtd">
<svg version="1.1" id="Layer_1" xmlns="http://www.w3.org/2000/svg" xmlns:xlink="http://www.w3.org/1999/xlink" x="0px" y="0px"
	 width="500px" height="500px" viewBox="0 0 500 500" enable-background="new 0 0 500 500" xml:space="preserve">
<g id="Layer_3">
	<g>
		<path fill="#003A70" d="M500,250c0,138.072-111.928,250-250,250C111.928,500,0,388.072,0,250C0,111.928,111.928,0,250,0
			C388.072,0,500,111.928,500,250"/>
		<path fill="#FFFFFF" stroke="#FFFFFF" stroke-width="2" stroke-miterlimit="10" d="M334.619,106.927
			c0.949,0.621,1.695,0.948,2.238,1.485c14.845,14.816,29.674,29.632,44.481,44.469c1.683,1.688,1.634,2.77-0.015,4.513
			c-0.301,0.328-0.62,0.628-0.941,0.942C309.785,228.935,239.18,299.54,168.581,370.138c-2.832,2.832-3.404,2.84-6.229,0
			c-14.307-14.307-28.613-28.611-42.92-42.92c-2.511-2.504-2.504-3.223,0.021-5.747c70.766-70.759,141.519-141.525,212.291-212.263
			C332.582,108.37,333.607,107.722,334.619,106.927 M165.27,365.653c70.25-70.251,140.52-140.521,210.616-210.617
			c-13.7-13.65-27.581-27.49-41.28-41.148c-0.803,0.628-1.771,1.389-2.865,2.246c3.283,3.293,6.39,6.383,9.492,9.494
			c0.936,0.928,1.896,1.834,2.757,2.832c0.954,1.102,0.935,2.322-0.084,3.362c-1.032,1.032-2.239,0.997-3.378,0.125
			c-0.577-0.446-1.079-0.983-1.604-1.499c-3.516-3.523-7.031-7.046-10.479-10.498c-1.457,1.437-2.774,2.748-4.312,4.255
			c1.558,1.492,3.134,3.006,4.709,4.526c1.248,1.2,1.911,2.574,0.517,4.012c-1.381,1.423-2.797,0.837-4.01-0.391
			c-1.593-1.598-3.134-3.237-4.466-4.618c-1.674,1.472-3.075,2.699-4.567,4.011c3.695,3.684,7.231,7.191,10.748,10.707
			c2.373,2.365,2.68,3.642,1.242,4.967c-1.359,1.263-2.505,0.941-4.812-1.367c-3.559-3.564-7.122-7.129-10.407-10.414
			c-1.562,1.395-2.957,2.637-4.548,4.053c1.604,1.527,3.181,2.95,4.681,4.457c1.611,1.633,1.813,3.083,0.578,4.186
			c-1.616,1.437-2.971,0.648-4.171-0.656c-1.473-1.604-2.915-3.229-4.241-4.701c-1.799,1.66-3.139,2.895-4.59,4.228
			c0.56,0.593,1.033,1.13,1.542,1.646c3.369,3.369,6.73,6.746,10.114,10.107c1.198,1.187,1.702,2.505,0.446,3.844
			c-1.367,1.438-2.756,0.928-4.004-0.349c-1.229-1.256-2.498-2.477-3.72-3.731c-2.588-2.665-5.161-5.344-7.59-7.854
			c-1.715,1.562-3.104,2.817-4.64,4.213c1.71,1.667,3.271,3.223,4.861,4.736c1.276,1.221,1.813,2.616,0.461,4.004
			c-1.4,1.423-2.824,0.81-3.981-0.502c-1.492-1.667-2.931-3.391-4.138-4.8c-2.01,1.766-3.409,3.007-5.021,4.423
			c0.772,0.67,1.416,1.165,1.987,1.729c3.271,3.258,6.515,6.543,9.808,9.787c1.216,1.199,1.709,2.532,0.468,3.851
			c-1.339,1.401-2.77,0.928-4.019-0.335c-0.517-0.53-1.032-1.047-1.549-1.562c-3.349-3.369-6.703-6.731-9.771-9.828
			c-1.575,1.472-2.942,2.755-4.575,4.275c1.625,1.514,3.215,3.021,4.834,4.506c1.317,1.214,1.834,2.63,0.453,3.99
			c-1.39,1.389-2.789,0.774-4.005-0.495c-1.541-1.625-3.104-3.229-4.437-4.604c-1.702,1.499-3.104,2.734-4.618,4.073
			c4.053,4.025,7.959,7.896,11.853,11.774c1.215,1.207,1.521,2.603,0.188,3.844c-1.214,1.13-2.532,0.886-3.684-0.3
			c-1.283-1.312-2.588-2.588-3.887-3.893c-2.63-2.63-5.259-5.267-7.792-7.799c-1.471,1.521-2.769,2.86-4.338,4.479
			c1.521,1.416,3.146,2.888,4.735,4.401c1.233,1.187,1.896,2.581,0.488,4.011c-1.396,1.424-2.757,0.845-3.97-0.446
			c-1.542-1.646-3.119-3.243-4.549-4.729c-1.652,1.507-3.026,2.77-4.743,4.332c0.788,0.635,1.473,1.081,2.044,1.64
			c3.334,3.306,6.718,6.557,9.892,10.01c0.664,0.726,0.811,2.253,0.614,3.313c-0.092,0.522-1.515,1.123-2.314,1.088
			c-0.732-0.028-1.527-0.761-2.136-1.354c-3.802-3.746-7.547-7.526-11.271-11.251c-1.465,1.485-2.783,2.817-4.304,4.359
			c1.486,1.416,3.014,2.881,4.541,4.346c1.276,1.221,2.094,2.574,0.705,4.192c-1.104,1.297-2.615,1.061-4.317-0.697
			c-1.465-1.514-2.825-3.146-4.311-4.813c-1.688,1.729-2.972,3.027-4.465,4.548c1.229,1.186,2.455,2.337,3.642,3.516
			c2.706,2.686,5.399,5.385,8.085,8.085c1.172,1.179,1.639,2.581,0.411,3.892c-1.354,1.444-2.771,0.872-4.011-0.355
			c-0.781-0.774-1.562-1.549-2.337-2.33c-3.083-3.104-6.159-6.208-9.187-9.263c-1.521,1.499-2.812,2.776-4.457,4.395
			c1.688,1.548,3.375,3.041,5.001,4.604c1.249,1.214,1.765,2.672,0.327,4.024c-1.324,1.256-2.713,0.761-3.863-0.425
			c-1.57-1.626-3.098-3.307-4.723-5.058c-1.576,1.66-2.881,3.014-4.305,4.527c3.697,3.689,7.395,7.429,11.147,11.119
			c1.298,1.276,2.378,2.56,0.893,4.311c-1.074,1.263-2.734,0.893-4.513-0.872c-2.441-2.441-4.925-4.841-7.297-7.331
			c-1.241-1.305-2.295-2.797-3.383-4.144c-1.939,1.855-3.25,3.118-5.064,4.854c1.234,0.998,2.406,1.87,3.502,2.84
			c3.982,3.543,3.25,4.415,2.113,5.678c-1.262,1.416-2.623,0.872-5.566-2.121c-1.046-1.074-2.002-2.253-2.518-2.839
			c-1.904,1.521-3.362,2.692-4.939,3.955c3.914,3.886,7.645,7.61,11.412,11.301c1.277,1.248,2.142,2.524,0.74,4.171
			c-1.089,1.275-2.603,1.005-4.332-0.711c-1.66-1.646-3.334-3.293-4.967-4.98c-2.072-2.128-4.108-4.29-5.811-6.076
			c-1.807,1.556-3.236,2.776-4.778,4.102c1.681,1.64,3.237,3.188,4.82,4.716c1.27,1.215,1.89,2.566,0.446,3.969
			c-1.416,1.367-2.818,0.838-3.997-0.486c-1.507-1.676-2.992-3.376-4.185-4.717c-1.834,1.725-3.202,3-4.673,4.382
			c3.815,3.809,7.652,7.639,11.502,11.446c1.2,1.187,1.702,2.519,0.454,3.856c-1.36,1.437-2.762,0.94-3.997-0.356
			c-0.398-0.418-0.823-0.821-1.242-1.24c-3.438-3.452-6.885-6.92-10.177-10.228c-1.598,1.458-3,2.714-4.521,4.089
			c1.709,1.674,3.286,3.215,4.855,4.75c1.262,1.213,1.848,2.615,0.467,4.004c-1.388,1.39-2.797,0.846-3.982-0.496
			c-1.493-1.666-2.986-3.348-4.43-4.965c-1.8,1.735-3.097,3.012-4.625,4.491c2.721,2.687,5.427,5.351,8.12,8.021
			c1.36,1.341,2.749,2.65,4.018,4.074c1.004,1.146,1.004,2.478-0.146,3.529c-1.054,0.983-2.274,0.906-3.349-0.084
			c-0.711-0.643-1.367-1.332-2.037-2.009c-3.341-3.354-6.682-6.711-9.821-9.863c-1.611,1.45-3.013,2.692-4.59,4.108
			c1.667,1.611,3.208,3.062,4.708,4.562c1.597,1.609,1.834,3.104,0.606,4.163c-1.59,1.396-2.971,0.648-4.206-0.635
			c-1.507-1.549-2.999-3.11-4.388-4.567c-1.583,1.598-2.853,2.881-4.255,4.297c3.669,3.653,7.394,7.373,11.105,11.098
			c1.792,1.793,2.03,3.132,0.851,4.346c-1.172,1.215-2.637,0.977-4.359-0.727c-2.239-2.217-4.5-4.414-6.676-6.702
			c-1.493-1.569-2.839-3.278-4.053-4.701c-1.911,1.771-3.229,2.999-4.896,4.548c1.702,1.562,3.404,3.062,5.022,4.639
			c1.165,1.139,1.709,2.521,0.412,3.865c-1.388,1.43-2.776,0.913-4.011-0.343c-1.569-1.61-3.146-3.235-4.688-4.812
			c-1.583,1.492-2.951,2.783-4.36,4.121c0.488,0.537,0.865,0.989,1.27,1.396c3.523,3.529,7.101,7.003,10.519,10.63
			c0.6,0.644,0.914,2.072,0.628,2.881c-0.244,0.698-1.535,1.402-2.358,1.402c-0.788,0-1.681-0.802-2.33-1.444
			c-3.767-3.694-7.471-7.44-11.091-11.076c-1.528,1.416-2.944,2.729-4.5,4.15c1.737,1.681,3.341,3.188,4.89,4.743
			c1.423,1.416,1.569,2.984,0.391,4.011c-1.416,1.221-2.714,0.753-3.857-0.461c-1.549-1.646-3.062-3.327-4.653-5.057
			c-1.646,1.667-2.972,2.983-4.437,4.464c3.927,3.913,7.806,7.792,11.705,11.656c1.214,1.198,1.604,2.553,0.349,3.844
			c-1.277,1.316-2.637,0.928-3.843-0.286c-2.483-2.49-4.995-4.953-7.457-7.471c-1.409-1.444-2.748-2.958-3.983-4.29
			c-1.346,1.144-2.288,1.938-3.125,2.655C137.765,338.155,151.598,351.981,165.27,365.653"/>
		<path fill="none" stroke="#FFFFFF" stroke-width="8" stroke-miterlimit="10" d="M211.098,218.945
			c-6.871-7.659-13.728-15.332-20.57-23.019c-3.418-3.823-7.38-5.315-12.082-5.755c-3.411-0.321-6.857-0.321-10.268-0.628
			c-12.946-1.165-23.904-6.312-30.978-17.467c-2.965-4.674-4.346-10.394-6.215-15.716c-0.349-0.97,0.405-2.322,0.649-3.509
			c1.109,0.279,2.351,0.321,3.285,0.879c6.013,3.606,11.984,7.29,17.92,11.028c2.672,1.675,5.357,1.919,8.329,0.9
			c5.141-1.786,9.256-4.716,11.711-9.724c0.928-1.87,1.918-3.711,2.937-5.539c2.497-4.43,2.043-8.643-1.988-11.746
			c-5.078-3.906-10.526-7.339-15.758-11.035c-1.946-1.375-3.906-2.783-5.587-4.443c-2.086-2.072-1.632-3.613,1.214-4.228
			c6.201-1.339,12.465-1.465,18.631,0.056c4.255,1.047,8.434,2.47,12.584,3.913c7.987,2.776,12.855,8.413,14.648,16.657
			c0.879,4.081,1.611,8.183,2.155,10.945c0.307,7.805,1.242,14.014,5.769,19.092c7.639,8.579,15.15,17.271,22.816,25.822"/>
		<path fill="none" stroke="#FFFFFF" stroke-width="8" stroke-miterlimit="10" d="M289.732,261.537
			c6.424,7.164,12.842,14.335,19.244,21.513c3.09,3.46,6.635,5.203,10.973,5.679c4.214,0.476,8.496,0.445,12.695,1.004
			c16.854,2.273,29.102,10.472,34.473,27.28c0.656,2.061,1.291,4.146,1.619,6.267c0.16,0.962-0.16,2.355-0.812,2.972
			c-0.409,0.376-1.979-0.091-2.79-0.579c-5.369-3.237-10.656-6.599-16.002-9.878c-2.922-1.792-5.803-3.787-9.577-2.608
			c-4.901,1.527-9.18,3.948-11.894,8.503c-1.29,2.179-2.336,4.499-3.585,6.703c-2.86,5.095-2.239,9.152,2.421,12.768
			c3.585,2.79,7.438,5.245,11.182,7.826c2.219,1.525,4.484,2.958,6.684,4.514c1.023,0.725,2.01,1.555,2.867,2.476
			c1.944,2.106,1.514,3.662-1.264,4.248c-5.447,1.165-11.027,1.626-16.439,0.356c-5.699-1.347-11.328-3.174-16.812-5.26
			c-7.625-2.902-11.393-9.146-12.85-16.818c-1.115-5.854-1.862-11.781-2.646-17.696c-0.571-4.374-2.364-8.119-5.237-11.396
			c-7.842-8.901-15.619-17.857-23.543-26.683"/>
	</g>
</g>
</svg>
